<svg xmlns="http://www.w3.org/2000/svg" xmlns:xlink="http://www.w3.org/1999/xlink" version="1.0" x="0" y="0" width="2400" height="766.0588911565487" viewBox="73.7457489013672 94.2764877319336 192.5085021972656 61.44702072143555" preserveAspectRatio="xMidYMid meet" color-interpolation-filters="sRGB"><g><defs><linearGradient id="92" x1="0%" y1="0%" x2="100%" y2="0%"><stop offset="0%" stop-color="#fa71cd"></stop> <stop offset="100%" stop-color="#9b59b6"></stop></linearGradient><linearGradient id="93" x1="0%" y1="0%" x2="100%" y2="0%"><stop offset="0%" stop-color="#f9d423"></stop> <stop offset="100%" stop-color="#f83600"></stop></linearGradient><linearGradient id="94" x1="0%" y1="0%" x2="100%" y2="0%"><stop offset="0%" stop-color="#0064d2"></stop> <stop offset="100%" stop-color="#1cb0f6"></stop></linearGradient><linearGradient id="95" x1="0%" y1="0%" x2="100%" y2="0%"><stop offset="0%" stop-color="#f00978"></stop> <stop offset="100%" stop-color="#3f51b1"></stop></linearGradient><linearGradient id="96" x1="0%" y1="0%" x2="100%" y2="0%"><stop offset="0%" stop-color="#7873f5"></stop> <stop offset="100%" stop-color="#ec77ab"></stop></linearGradient><linearGradient id="97" x1="0%" y1="0%" x2="100%" y2="0%"><stop offset="0%" stop-color="#f9d423"></stop> <stop offset="100%" stop-color="#e14fad"></stop></linearGradient><linearGradient id="98" x1="0%" y1="0%" x2="100%" y2="0%"><stop offset="0%" stop-color="#009efd"></stop> <stop offset="100%" stop-color="#2af598"></stop></linearGradient><linearGradient id="99" x1="0%" y1="0%" x2="100%" y2="0%"><stop offset="0%" stop-color="#ffcc00"></stop> <stop offset="100%" stop-color="#00b140"></stop></linearGradient><linearGradient id="100" x1="0%" y1="0%" x2="100%" y2="0%"><stop offset="0%" stop-color="#d51007"></stop> <stop offset="100%" stop-color="#ff8177"></stop></linearGradient><linearGradient id="102" x1="0%" y1="0%" x2="100%" y2="0%"><stop offset="0%" stop-color="#a2b6df"></stop> <stop offset="100%" stop-color="#0c3483"></stop></linearGradient><linearGradient id="103" x1="0%" y1="0%" x2="100%" y2="0%"><stop offset="0%" stop-color="#7ac5d8"></stop> <stop offset="100%" stop-color="#eea2a2"></stop></linearGradient><linearGradient id="104" x1="0%" y1="0%" x2="100%" y2="0%"><stop offset="0%" stop-color="#00ecbc"></stop> <stop offset="100%" stop-color="#007adf"></stop></linearGradient><linearGradient id="105" x1="0%" y1="0%" x2="100%" y2="0%"><stop offset="0%" stop-color="#b88746"></stop> <stop offset="100%" stop-color="#fdf5a6"></stop></linearGradient></defs><g fill="#234975" class="icon-text-wrapper icon-svg-group iconsvg" transform="translate(75.63308715820312,96.16382789611816)"><g class="iconsvg-imagesvg" transform="translate(0,0)"><g><rect fill="#234975" fill-opacity="0" stroke-width="2" x="0" y="0" width="60" height="57.67234418855012" class="image-rect"></rect> <svg filter="url(#colors9638675392)" x="0" y="0" width="60" height="57.67234418855012" filtersec="colorsf3683059886" class="image-svg-svg primary" style="overflow: visible;"><svg xmlns="http://www.w3.org/2000/svg" xmlns:xlink="http://www.w3.org/1999/xlink" viewBox="-0.003999948501586914 0.0019989013671875 50.26000213623047 48.310001373291016"><path transform="translate(-2.3040000000000003 48.312000000000005)" d="M44.42-8.57L52.56-8.57L52.56 0L34.56 0L30.67 0Q24.62 0 22.39-0.18Q20.16-0.36 17.06-1.08L17.06-1.08Q9.00-2.95 5.18-10.30L5.18-10.30Q2.30-15.91 2.30-23.76L2.30-23.76Q2.30-37.44 9.14-43.34L9.14-43.34Q14.98-48.31 25.99-48.31L25.99-48.31Q33.26-48.31 38.66-45.86L38.66-45.86Q42.05-44.28 44.21-41.98Q46.37-39.67 47.66-36.00L47.66-36.00Q49.75-30.31 49.75-24.34L49.75-24.34Q49.75-15.12 44.42-8.57L44.42-8.57ZM26.06-40.25L26.06-40.25Q19.73-40.25 16.67-36.40Q13.61-32.54 13.61-24.70L13.61-24.70Q13.61-17.86 15.62-13.61L15.62-13.61Q18.29-8.06 26.14-8.06L26.14-8.06Q33.48-8.06 36.29-13.18L36.29-13.18Q38.45-17.06 38.45-24.48L38.45-24.48Q38.45-31.25 35.86-35.50L35.86-35.50Q32.90-40.18 26.06-40.25Z"></path></svg></svg> <defs><filter id="colors9638675392"><feColorMatrix type="matrix" values="0 0 0 0 0.13671875  0 0 0 0 0.28515625  0 0 0 0 0.45703125  0 0 0 1 0" class="icon-feColorMatrix "></feColorMatrix></filter> <filter id="colorsf3683059886"><feColorMatrix type="matrix" values="0 0 0 0 0.99609375  0 0 0 0 0.99609375  0 0 0 0 0.99609375  0 0 0 1 0" class="icon-fecolormatrix"></feColorMatrix></filter> <filter id="colorsb5138273439"><feColorMatrix type="matrix" values="0 0 0 0 0  0 0 0 0 0  0 0 0 0 0  0 0 0 1 0" class="icon-fecolormatrix"></feColorMatrix></filter></defs></g></g> <g transform="translate(67,9.519922256469727)"><g fill-rule="" class="tp-name iconsvg-namesvg"><g transform="scale(1)"><g><path d="M7.6 0L0.14 0 12.55-30.3202 19.89-30.3202 32.31 0 24.84 0 21.91-6.9993 10.53-6.9993 7.6 0ZM20.52-12.412899999999999L16.25-22.9977 11.97-12.412899999999999 20.52-12.412899999999999ZM41.45-30.3202L41.45 0 35.41 0 35.41-30.3202 41.45-30.3202ZM47.38 8.3123L47.38-22.1291 57.91-22.1291Q60.98-22.1291 62.55-21.7453 64.13-21.3615 65.56-20.2202L65.56-20.2202Q69.48-17.1296 69.48-10.726199999999999L69.48-10.726199999999999Q69.48-5.858 66.6-2.8583000000000003L66.6-2.8583000000000003Q65.16-1.3635000000000002 63.29-0.6767000000000001 61.42 0 58.73 0L58.73 0 53.41 0 53.41 8.3123 47.38 8.3123ZM57.51-17.4023L53.41-17.4023 53.41-4.7268 57.11-4.7268Q60.03-4.7268 61.38-5.9994000000000005L61.38-5.9994000000000005Q63.27-7.675999999999999 63.27-11.1807L63.27-11.1807Q63.27-14.180399999999999 61.78-15.7964 60.3-17.4023 57.51-17.4023L57.51-17.4023ZM73.89-30.3202L79.92-30.3202 79.92-22.1291 86.09-22.1291Q88.83-22.1291 90.38-21.7049 91.94-21.270599999999998 93.02-20.1798L93.02-20.1798Q95.09-18.2709 95.09-13.766300000000001L95.09-13.766300000000001 95.09 0 89.06 0 89.06-12.584600000000002Q89.06-14.362200000000001 88.9-15.1096 88.74-15.8671 88.25-16.4125L88.25-16.4125Q87.34-17.361900000000002 84.83-17.4023L84.83-17.4023 79.92-17.4023 79.92 0 73.89 0 73.89-30.3202ZM108.45-13.4532L115.83-13.4532Q115.83-15.7762 114.91-16.5943 113.98-17.4023 111.24-17.4023L111.24-17.4023 101.07-17.4023 101.07-22.1291 111.24-22.1291Q113.98-22.1291 115.02-22.018 116.05-21.9069 117.13-21.593799999999998L117.13-21.593799999999998Q122.13-19.6748 121.86-12.4533L121.86-12.4533 121.86 0 109.17 0Q105.75 0 104.44-0.202 103.14-0.404 102.15-1.0403L102.15-1.0403Q99.49-2.8583000000000003 99.49-6.5448L99.49-6.5448Q99.49-8.7769 100.55-10.5242 101.61-12.2715 103.36-12.9078L103.36-12.9078Q104.89-13.4532 108.45-13.4532L108.45-13.4532ZM115.83-4.7268L115.83-8.7264 108.9-8.7264 107.86-8.7264Q106.83-8.7264 106.22-8.181 105.61-7.635599999999999 105.61-6.676100000000001L105.61-6.676100000000001Q105.61-5.6358 106.36-5.1813 107.1-4.7268 108.9-4.7268L108.9-4.7268 115.83-4.7268Z" transform="translate(-0.14000000059604645, 30.320199966430664)"></path></g> </g></g> </g></g><defs v-gra="od"></defs></g></svg>